<?xml version="1.0" standalone="no"?>
<!DOCTYPE svg PUBLIC "-//W3C//DTD SVG 20010904//EN"
 "http://www.w3.org/TR/2001/REC-SVG-20010904/DTD/svg10.dtd">
<svg version="1.0" xmlns="http://www.w3.org/2000/svg"
 width="848.000000pt" height="848.000000pt" viewBox="0 0 848.000000 848.000000"
 preserveAspectRatio="xMidYMid meet">
<metadata>
Created by potrace 1.14, written by Peter Selinger 2001-2017
</metadata>
<g transform="translate(0.000000,848.000000) scale(0.100000,-0.100000)"
fill="#000000" stroke="none">
<path d="M4238 8330 c-205 -51 -367 -176 -447 -345 -59 -125 -79 -288 -52
-434 51 -271 293 -486 586 -518 176 -19 322 4 460 75 96 50 238 192 282 282
58 120 77 238 61 386 -28 267 -208 471 -481 547 -105 29 -306 32 -409 7z"/>
<path d="M3517 6556 c-62 -17 -116 -61 -147 -122 -21 -41 -25 -62 -25 -134 0
-73 4 -93 28 -142 35 -72 106 -136 209 -190 135 -70 214 -167 236 -288 4 -25
8 -1255 7 -2735 l0 -2690 -75 -1 c-164 -4 -407 -4 -435 1 -69 12 -85 17 -110
36 -42 34 -33 74 45 189 88 130 206 350 237 440 60 176 54 272 -21 338 -50 44
-102 55 -246 54 -300 -2 -483 -94 -536 -268 -14 -46 -20 -186 -10 -232 61
-284 205 -508 378 -590 122 -57 110 -56 673 -55 964 2 939 1 1065 61 72 35
174 136 205 204 55 121 52 -52 49 2918 -1 1510 -5 2763 -8 2785 -12 78 -27
127 -62 195 -27 54 -133 153 -194 182 -52 25 -65 30 -122 45 -13 4 -264 8
-558 9 -406 2 -547 -1 -583 -10z"/>
<path d="M5160 3425 c-1 -5 -2 -380 -3 -832 -1 -541 1 -824 8 -826 6 -2 96 -3
200 -2 163 1 201 5 260 23 208 63 327 242 319 480 -8 237 -139 448 -393 635
-100 73 -224 193 -270 260 -45 66 -89 157 -105 219 -8 29 -15 49 -16 43z"/>
</g>
</svg>
